# xmcd
#
# Track frame offsets:
#	150
#	21975
#	45251
#	68621
#	89282
#	126022
#	140488
#	158770
#	176069
#	194439
#	210715
#	225980
#
# Disc length: 3462 seconds
#
# Revision: 1
# Processed by: cddbd v1.5.2PL0 Copyright (c) Steve Scherf et al.
# Submitted via: EZCDAudioConverter 1.3.4.1
#
DISCID=9a0d840c
DTITLE=Greg Foat Group - Girl And Robot With Flowers
DYEAR=2012
DGENRE=
TTITLE0=Girl And Robot With Flowers (Part 1)
TTITLE1=Have Spacesuit Will Travel (Part 1)
TTITLE2=Girl And Robot With Flowers (Part 2)
TTITLE3=Girl And Robot With Flowers (Part 3)
TTITLE4=For A Breath I Tarry
TTITLE5=Cast Adrift
TTITLE6=Girl And Robot With Flowers (Part 4)
TTITLE7=Girl And Robot With Flowers (Part 5)
TTITLE8=Have Spacesuit Will Travel (Part 2)
TTITLE9=Clear Skies Select Stick
TTITLE10=Blues For Lila
TTITLE11=Girl And Robot With Flowers (Part 6) 
EXTD=
EXTT0=
EXTT1=
EXTT2=
EXTT3=
EXTT4=
EXTT5=
EXTT6=
EXTT7=
EXTT8=
EXTT9=
EXTT10=
EXTT11=
PLAYORDER=
